solid 
 facet normal -4.73294 -0.731603 -3.15967
  outer loop 
    vertex -89.5947 141.819 13.1316
    vertex -88.0264 143.209 10.4605
    vertex -88.1301 141.102 11.1037
  endloop 
 endfacet 
 facet normal -4.73294 -0.731603 -3.15967
  outer loop 
    vertex -89.5947 141.819 13.1316
    vertex -89.491 143.926 12.4884
    vertex -88.0264 143.209 10.4605
  endloop 
 endfacet 
 facet normal -4.73294 -0.731603 -3.15967
  outer loop 
    vertex -88.0264 143.209 10.4605
    vertex -86.5618 142.492 8.43268
    vertex -88.1301 141.102 11.1037
  endloop 
 endfacet 
 facet normal -4.73294 -0.731603 -3.15967
  outer loop 
    vertex -88.1301 141.102 11.1037
    vertex -89.6985 139.713 13.7748
    vertex -89.5947 141.819 13.1316
  endloop 
 endfacet 
 facet normal -6.28563 1.44494 -2.93898
  outer loop 
    vertex -89.6985 139.713 13.7748
    vertex -88.1301 141.102 11.1037
    vertex -88.3992 138.99 10.6406
  endloop 
 endfacet 
 facet normal -6.28563 1.44494 -2.93898
  outer loop 
    vertex -88.1301 141.102 11.1037
    vertex -86.5618 142.492 8.43268
    vertex -88.3992 138.99 10.6406
  endloop 
 endfacet 
 facet normal -6.1965 -1.98744 -3.77272
  outer loop 
    vertex -86.5618 142.492 8.43268
    vertex -88.0264 143.209 10.4605
    vertex -88.5857 146.059 9.87799
  endloop 
 endfacet 
 facet normal -6.1965 -1.98744 -3.77272
  outer loop 
    vertex -88.0264 143.209 10.4605
    vertex -89.491 143.926 12.4884
    vertex -88.5857 146.059 9.87799
  endloop 
 endfacet 
 facet normal -5.11406 -0.743543 -3.26025
  outer loop 
    vertex -89.491 143.926 12.4884
    vertex -89.5947 141.819 13.1316
    vertex -91.1609 141.444 15.674
  endloop 
 endfacet 
 facet normal -5.11406 -0.743543 -3.26025
  outer loop 
    vertex -89.5947 141.819 13.1316
    vertex -89.6985 139.713 13.7748
    vertex -91.1609 141.444 15.674
  endloop 
 endfacet 
endsolid 
solid 
 facet normal -4.73294 -0.731603 -3.15967
  outer loop 
    vertex -89.5947 141.819 13.1316
    vertex -88.0264 143.209 10.4605
    vertex -88.1301 141.102 11.1037
  endloop 
 endfacet 
 facet normal -4.73294 -0.731603 -3.15967
  outer loop 
    vertex -89.5947 141.819 13.1316
    vertex -89.491 143.926 12.4884
    vertex -88.0264 143.209 10.4605
  endloop 
 endfacet 
 facet normal -4.73294 -0.731603 -3.15967
  outer loop 
    vertex -88.0264 143.209 10.4605
    vertex -86.5618 142.492 8.43268
    vertex -88.1301 141.102 11.1037
  endloop 
 endfacet 
 facet normal -4.73294 -0.731603 -3.15967
  outer loop 
    vertex -88.1301 141.102 11.1037
    vertex -89.6985 139.713 13.7748
    vertex -89.5947 141.819 13.1316
  endloop 
 endfacet 
 facet normal -6.28563 1.44494 -2.93898
  outer loop 
    vertex -89.6985 139.713 13.7748
    vertex -88.1301 141.102 11.1037
    vertex -88.3992 138.99 10.6406
  endloop 
 endfacet 
 facet normal -6.28563 1.44494 -2.93898
  outer loop 
    vertex -88.1301 141.102 11.1037
    vertex -86.5618 142.492 8.43268
    vertex -88.3992 138.99 10.6406
  endloop 
 endfacet 
 facet normal -6.1965 -1.98744 -3.77272
  outer loop 
    vertex -86.5618 142.492 8.43268
    vertex -88.0264 143.209 10.4605
    vertex -88.5857 146.059 9.87799
  endloop 
 endfacet 
 facet normal -6.1965 -1.98744 -3.77272
  outer loop 
    vertex -88.0264 143.209 10.4605
    vertex -89.491 143.926 12.4884
    vertex -88.5857 146.059 9.87799
  endloop 
 endfacet 
 facet normal -5.11406 -0.743543 -3.26025
  outer loop 
    vertex -89.491 143.926 12.4884
    vertex -89.5947 141.819 13.1316
    vertex -91.1609 141.444 15.674
  endloop 
 endfacet 
 facet normal -5.11406 -0.743543 -3.26025
  outer loop 
    vertex -89.5947 141.819 13.1316
    vertex -89.6985 139.713 13.7748
    vertex -91.1609 141.444 15.674
  endloop 
 endfacet 
endsolid 
solid 
 facet normal -4.73294 -0.731603 -3.15967
  outer loop 
    vertex -89.5947 141.819 13.1316
    vertex -88.0264 143.209 10.4605
    vertex -88.1301 141.102 11.1037
  endloop 
 endfacet 
 facet normal -4.73294 -0.731603 -3.15967
  outer loop 
    vertex -89.5947 141.819 13.1316
    vertex -89.491 143.926 12.4884
    vertex -88.0264 143.209 10.4605
  endloop 
 endfacet 
 facet normal -4.73294 -0.731603 -3.15967
  outer loop 
    vertex -88.0264 143.209 10.4605
    vertex -86.5618 142.492 8.43268
    vertex -88.1301 141.102 11.1037
  endloop 
 endfacet 
 facet normal -4.73294 -0.731603 -3.15967
  outer loop 
    vertex -88.1301 141.102 11.1037
    vertex -89.6985 139.713 13.7748
    vertex -89.5947 141.819 13.1316
  endloop 
 endfacet 
 facet normal -6.28563 1.44494 -2.93898
  outer loop 
    vertex -89.6985 139.713 13.7748
    vertex -88.1301 141.102 11.1037
    vertex -88.3992 138.99 10.6406
  endloop 
 endfacet 
 facet normal -6.28563 1.44494 -2.93898
  outer loop 
    vertex -88.1301 141.102 11.1037
    vertex -86.5618 142.492 8.43268
    vertex -88.3992 138.99 10.6406
  endloop 
 endfacet 
 facet normal -6.1965 -1.98744 -3.77272
  outer loop 
    vertex -86.5618 142.492 8.43268
    vertex -88.0264 143.209 10.4605
    vertex -88.5857 146.059 9.87799
  endloop 
 endfacet 
 facet normal -6.1965 -1.98744 -3.77272
  outer loop 
    vertex -88.0264 143.209 10.4605
    vertex -89.491 143.926 12.4884
    vertex -88.5857 146.059 9.87799
  endloop 
 endfacet 
 facet normal -5.11406 -0.743543 -3.26025
  outer loop 
    vertex -89.491 143.926 12.4884
    vertex -89.5947 141.819 13.1316
    vertex -91.1609 141.444 15.674
  endloop 
 endfacet 
 facet normal -5.11406 -0.743543 -3.26025
  outer loop 
    vertex -89.5947 141.819 13.1316
    vertex -89.6985 139.713 13.7748
    vertex -91.1609 141.444 15.674
  endloop 
 endfacet 
endsolid 
solid 
 facet normal -4.73294 -0.731603 -3.15967
  outer loop 
    vertex -89.5947 141.819 13.1316
    vertex -88.0264 143.209 10.4605
    vertex -88.1301 141.102 11.1037
  endloop 
 endfacet 
 facet normal -4.73294 -0.731603 -3.15967
  outer loop 
    vertex -89.5947 141.819 13.1316
    vertex -89.491 143.926 12.4884
    vertex -88.0264 143.209 10.4605
  endloop 
 endfacet 
 facet normal -4.73294 -0.731603 -3.15967
  outer loop 
    vertex -88.0264 143.209 10.4605
    vertex -86.5618 142.492 8.43268
    vertex -88.1301 141.102 11.1037
  endloop 
 endfacet 
 facet normal -4.73294 -0.731603 -3.15967
  outer loop 
    vertex -88.1301 141.102 11.1037
    vertex -89.6985 139.713 13.7748
    vertex -89.5947 141.819 13.1316
  endloop 
 endfacet 
 facet normal -6.28563 1.44494 -2.93898
  outer loop 
    vertex -89.6985 139.713 13.7748
    vertex -88.1301 141.102 11.1037
    vertex -88.3992 138.99 10.6406
  endloop 
 endfacet 
 facet normal -6.28563 1.44494 -2.93898
  outer loop 
    vertex -88.1301 141.102 11.1037
    vertex -86.5618 142.492 8.43268
    vertex -88.3992 138.99 10.6406
  endloop 
 endfacet 
 facet normal -6.1965 -1.98744 -3.77272
  outer loop 
    vertex -86.5618 142.492 8.43268
    vertex -88.0264 143.209 10.4605
    vertex -88.5857 146.059 9.87799
  endloop 
 endfacet 
 facet normal -6.1965 -1.98744 -3.77272
  outer loop 
    vertex -88.0264 143.209 10.4605
    vertex -89.491 143.926 12.4884
    vertex -88.5857 146.059 9.87799
  endloop 
 endfacet 
 facet normal -5.11406 -0.743543 -3.26025
  outer loop 
    vertex -89.491 143.926 12.4884
    vertex -89.5947 141.819 13.1316
    vertex -91.1609 141.444 15.674
  endloop 
 endfacet 
 facet normal -5.11406 -0.743543 -3.26025
  outer loop 
    vertex -89.5947 141.819 13.1316
    vertex -89.6985 139.713 13.7748
    vertex -91.1609 141.444 15.674
  endloop 
 endfacet 
endsolid 
solid 
 facet normal -4.73294 -0.731603 -3.15967
  outer loop 
    vertex -89.5947 141.819 13.1316
    vertex -88.0264 143.209 10.4605
    vertex -88.1301 141.102 11.1037
  endloop 
 endfacet 
 facet normal -4.73294 -0.731603 -3.15967
  outer loop 
    vertex -89.5947 141.819 13.1316
    vertex -89.491 143.926 12.4884
    vertex -88.0264 143.209 10.4605
  endloop 
 endfacet 
 facet normal -4.73294 -0.731603 -3.15967
  outer loop 
    vertex -88.0264 143.209 10.4605
    vertex -86.5618 142.492 8.43268
    vertex -88.1301 141.102 11.1037
  endloop 
 endfacet 
 facet normal -4.73294 -0.731603 -3.15967
  outer loop 
    vertex -88.1301 141.102 11.1037
    vertex -89.6985 139.713 13.7748
    vertex -89.5947 141.819 13.1316
  endloop 
 endfacet 
 facet normal -6.28563 1.44494 -2.93898
  outer loop 
    vertex -89.6985 139.713 13.7748
    vertex -88.1301 141.102 11.1037
    vertex -88.3992 138.99 10.6406
  endloop 
 endfacet 
 facet normal -6.28563 1.44494 -2.93898
  outer loop 
    vertex -88.1301 141.102 11.1037
    vertex -86.5618 142.492 8.43268
    vertex -88.3992 138.99 10.6406
  endloop 
 endfacet 
 facet normal -6.1965 -1.98744 -3.77272
  outer loop 
    vertex -86.5618 142.492 8.43268
    vertex -88.0264 143.209 10.4605
    vertex -88.5857 146.059 9.87799
  endloop 
 endfacet 
 facet normal -6.1965 -1.98744 -3.77272
  outer loop 
    vertex -88.0264 143.209 10.4605
    vertex -89.491 143.926 12.4884
    vertex -88.5857 146.059 9.87799
  endloop 
 endfacet 
 facet normal -5.11406 -0.743543 -3.26025
  outer loop 
    vertex -89.491 143.926 12.4884
    vertex -89.5947 141.819 13.1316
    vertex -91.1609 141.444 15.674
  endloop 
 endfacet 
 facet normal -5.11406 -0.743543 -3.26025
  outer loop 
    vertex -89.5947 141.819 13.1316
    vertex -89.6985 139.713 13.7748
    vertex -91.1609 141.444 15.674
  endloop 
 endfacet 
endsolid 
solid 
 facet normal -4.73294 -0.731603 -3.15967
  outer loop 
    vertex -89.5947 141.819 13.1316
    vertex -88.0264 143.209 10.4605
    vertex -88.1301 141.102 11.1037
  endloop 
 endfacet 
 facet normal -4.73294 -0.731603 -3.15967
  outer loop 
    vertex -89.5947 141.819 13.1316
    vertex -89.491 143.926 12.4884
    vertex -88.0264 143.209 10.4605
  endloop 
 endfacet 
 facet normal -4.73294 -0.731603 -3.15967
  outer loop 
    vertex -88.0264 143.209 10.4605
    vertex -86.5618 142.492 8.43268
    vertex -88.1301 141.102 11.1037
  endloop 
 endfacet 
 facet normal -4.73294 -0.731603 -3.15967
  outer loop 
    vertex -88.1301 141.102 11.1037
    vertex -89.6985 139.713 13.7748
    vertex -89.5947 141.819 13.1316
  endloop 
 endfacet 
 facet normal -6.28563 1.44494 -2.93898
  outer loop 
    vertex -89.6985 139.713 13.7748
    vertex -88.1301 141.102 11.1037
    vertex -88.3992 138.99 10.6406
  endloop 
 endfacet 
 facet normal -6.28563 1.44494 -2.93898
  outer loop 
    vertex -88.1301 141.102 11.1037
    vertex -86.5618 142.492 8.43268
    vertex -88.3992 138.99 10.6406
  endloop 
 endfacet 
 facet normal -6.1965 -1.98744 -3.77272
  outer loop 
    vertex -86.5618 142.492 8.43268
    vertex -88.0264 143.209 10.4605
    vertex -88.5857 146.059 9.87799
  endloop 
 endfacet 
 facet normal -6.1965 -1.98744 -3.77272
  outer loop 
    vertex -88.0264 143.209 10.4605
    vertex -89.491 143.926 12.4884
    vertex -88.5857 146.059 9.87799
  endloop 
 endfacet 
 facet normal -5.11406 -0.743543 -3.26025
  outer loop 
    vertex -89.491 143.926 12.4884
    vertex -89.5947 141.819 13.1316
    vertex -91.1609 141.444 15.674
  endloop 
 endfacet 
 facet normal -5.11406 -0.743543 -3.26025
  outer loop 
    vertex -89.5947 141.819 13.1316
    vertex -89.6985 139.713 13.7748
    vertex -91.1609 141.444 15.674
  endloop 
 endfacet 
endsolid 
solid 
 facet normal -4.73294 -0.731603 -3.15967
  outer loop 
    vertex -89.5947 141.819 13.1316
    vertex -88.0264 143.209 10.4605
    vertex -88.1301 141.102 11.1037
  endloop 
 endfacet 
 facet normal -4.73294 -0.731603 -3.15967
  outer loop 
    vertex -89.5947 141.819 13.1316
    vertex -89.491 143.926 12.4884
    vertex -88.0264 143.209 10.4605
  endloop 
 endfacet 
 facet normal -4.73294 -0.731603 -3.15967
  outer loop 
    vertex -88.0264 143.209 10.4605
    vertex -86.5618 142.492 8.43268
    vertex -88.1301 141.102 11.1037
  endloop 
 endfacet 
 facet normal -4.73294 -0.731603 -3.15967
  outer loop 
    vertex -88.1301 141.102 11.1037
    vertex -89.6985 139.713 13.7748
    vertex -89.5947 141.819 13.1316
  endloop 
 endfacet 
 facet normal -6.28563 1.44494 -2.93898
  outer loop 
    vertex -89.6985 139.713 13.7748
    vertex -88.1301 141.102 11.1037
    vertex -88.3992 138.99 10.6406
  endloop 
 endfacet 
 facet normal -6.28563 1.44494 -2.93898
  outer loop 
    vertex -88.1301 141.102 11.1037
    vertex -86.5618 142.492 8.43268
    vertex -88.3992 138.99 10.6406
  endloop 
 endfacet 
 facet normal -6.1965 -1.98744 -3.77272
  outer loop 
    vertex -86.5618 142.492 8.43268
    vertex -88.0264 143.209 10.4605
    vertex -88.5857 146.059 9.87799
  endloop 
 endfacet 
 facet normal -6.1965 -1.98744 -3.77272
  outer loop 
    vertex -88.0264 143.209 10.4605
    vertex -89.491 143.926 12.4884
    vertex -88.5857 146.059 9.87799
  endloop 
 endfacet 
 facet normal -5.11406 -0.743543 -3.26025
  outer loop 
    vertex -89.491 143.926 12.4884
    vertex -89.5947 141.819 13.1316
    vertex -91.1609 141.444 15.674
  endloop 
 endfacet 
 facet normal -5.11406 -0.743543 -3.26025
  outer loop 
    vertex -89.5947 141.819 13.1316
    vertex -89.6985 139.713 13.7748
    vertex -91.1609 141.444 15.674
  endloop 
 endfacet 
endsolid 
solid 
 facet normal -4.73294 -0.731603 -3.15967
  outer loop 
    vertex -89.5947 141.819 13.1316
    vertex -88.0264 143.209 10.4605
    vertex -88.1301 141.102 11.1037
  endloop 
 endfacet 
 facet normal -4.73294 -0.731603 -3.15967
  outer loop 
    vertex -89.5947 141.819 13.1316
    vertex -89.491 143.926 12.4884
    vertex -88.0264 143.209 10.4605
  endloop 
 endfacet 
 facet normal -4.73294 -0.731603 -3.15967
  outer loop 
    vertex -88.0264 143.209 10.4605
    vertex -86.5618 142.492 8.43268
    vertex -88.1301 141.102 11.1037
  endloop 
 endfacet 
 facet normal -4.73294 -0.731603 -3.15967
  outer loop 
    vertex -88.1301 141.102 11.1037
    vertex -89.6985 139.713 13.7748
    vertex -89.5947 141.819 13.1316
  endloop 
 endfacet 
 facet normal -6.28563 1.44494 -2.93898
  outer loop 
    vertex -89.6985 139.713 13.7748
    vertex -88.1301 141.102 11.1037
    vertex -88.3992 138.99 10.6406
  endloop 
 endfacet 
 facet normal -6.28563 1.44494 -2.93898
  outer loop 
    vertex -88.1301 141.102 11.1037
    vertex -86.5618 142.492 8.43268
    vertex -88.3992 138.99 10.6406
  endloop 
 endfacet 
 facet normal -6.1965 -1.98744 -3.77272
  outer loop 
    vertex -86.5618 142.492 8.43268
    vertex -88.0264 143.209 10.4605
    vertex -88.5857 146.059 9.87799
  endloop 
 endfacet 
 facet normal -6.1965 -1.98744 -3.77272
  outer loop 
    vertex -88.0264 143.209 10.4605
    vertex -89.491 143.926 12.4884
    vertex -88.5857 146.059 9.87799
  endloop 
 endfacet 
 facet normal -5.11406 -0.743543 -3.26025
  outer loop 
    vertex -89.491 143.926 12.4884
    vertex -89.5947 141.819 13.1316
    vertex -91.1609 141.444 15.674
  endloop 
 endfacet 
 facet normal -5.11406 -0.743543 -3.26025
  outer loop 
    vertex -89.5947 141.819 13.1316
    vertex -89.6985 139.713 13.7748
    vertex -91.1609 141.444 15.674
  endloop 
 endfacet 
endsolid 
solid 
 facet normal -4.73294 -0.731603 -3.15967
  outer loop 
    vertex -89.5947 141.819 13.1316
    vertex -88.0264 143.209 10.4605
    vertex -88.1301 141.102 11.1037
  endloop 
 endfacet 
 facet normal -4.73294 -0.731603 -3.15967
  outer loop 
    vertex -89.5947 141.819 13.1316
    vertex -89.491 143.926 12.4884
    vertex -88.0264 143.209 10.4605
  endloop 
 endfacet 
 facet normal -4.73294 -0.731603 -3.15967
  outer loop 
    vertex -88.0264 143.209 10.4605
    vertex -86.5618 142.492 8.43268
    vertex -88.1301 141.102 11.1037
  endloop 
 endfacet 
 facet normal -4.73294 -0.731603 -3.15967
  outer loop 
    vertex -88.1301 141.102 11.1037
    vertex -89.6985 139.713 13.7748
    vertex -89.5947 141.819 13.1316
  endloop 
 endfacet 
 facet normal -6.28563 1.44494 -2.93898
  outer loop 
    vertex -89.6985 139.713 13.7748
    vertex -88.1301 141.102 11.1037
    vertex -88.3992 138.99 10.6406
  endloop 
 endfacet 
 facet normal -6.28563 1.44494 -2.93898
  outer loop 
    vertex -88.1301 141.102 11.1037
    vertex -86.5618 142.492 8.43268
    vertex -88.3992 138.99 10.6406
  endloop 
 endfacet 
 facet normal -6.1965 -1.98744 -3.77272
  outer loop 
    vertex -86.5618 142.492 8.43268
    vertex -88.0264 143.209 10.4605
    vertex -88.5857 146.059 9.87799
  endloop 
 endfacet 
 facet normal -6.1965 -1.98744 -3.77272
  outer loop 
    vertex -88.0264 143.209 10.4605
    vertex -89.491 143.926 12.4884
    vertex -88.5857 146.059 9.87799
  endloop 
 endfacet 
 facet normal -5.11406 -0.743543 -3.26025
  outer loop 
    vertex -89.491 143.926 12.4884
    vertex -89.5947 141.819 13.1316
    vertex -91.1609 141.444 15.674
  endloop 
 endfacet 
 facet normal -5.11406 -0.743543 -3.26025
  outer loop 
    vertex -89.5947 141.819 13.1316
    vertex -89.6985 139.713 13.7748
    vertex -91.1609 141.444 15.674
  endloop 
 endfacet 
endsolid 
solid 
 facet normal -4.73294 -0.731603 -3.15967
  outer loop 
    vertex -89.5947 141.819 13.1316
    vertex -88.0264 143.209 10.4605
    vertex -88.1301 141.102 11.1037
  endloop 
 endfacet 
 facet normal -4.73294 -0.731603 -3.15967
  outer loop 
    vertex -89.5947 141.819 13.1316
    vertex -89.491 143.926 12.4884
    vertex -88.0264 143.209 10.4605
  endloop 
 endfacet 
 facet normal -4.73294 -0.731603 -3.15967
  outer loop 
    vertex -88.0264 143.209 10.4605
    vertex -86.5618 142.492 8.43268
    vertex -88.1301 141.102 11.1037
  endloop 
 endfacet 
 facet normal -4.73294 -0.731603 -3.15967
  outer loop 
    vertex -88.1301 141.102 11.1037
    vertex -89.6985 139.713 13.7748
    vertex -89.5947 141.819 13.1316
  endloop 
 endfacet 
 facet normal -6.28563 1.44494 -2.93898
  outer loop 
    vertex -89.6985 139.713 13.7748
    vertex -88.1301 141.102 11.1037
    vertex -88.3992 138.99 10.6406
  endloop 
 endfacet 
 facet normal -6.28563 1.44494 -2.93898
  outer loop 
    vertex -88.1301 141.102 11.1037
    vertex -86.5618 142.492 8.43268
    vertex -88.3992 138.99 10.6406
  endloop 
 endfacet 
 facet normal -6.1965 -1.98744 -3.77272
  outer loop 
    vertex -86.5618 142.492 8.43268
    vertex -88.0264 143.209 10.4605
    vertex -88.5857 146.059 9.87799
  endloop 
 endfacet 
 facet normal -6.1965 -1.98744 -3.77272
  outer loop 
    vertex -88.0264 143.209 10.4605
    vertex -89.491 143.926 12.4884
    vertex -88.5857 146.059 9.87799
  endloop 
 endfacet 
 facet normal -5.11406 -0.743543 -3.26025
  outer loop 
    vertex -89.491 143.926 12.4884
    vertex -89.5947 141.819 13.1316
    vertex -91.1609 141.444 15.674
  endloop 
 endfacet 
 facet normal -5.11406 -0.743543 -3.26025
  outer loop 
    vertex -89.5947 141.819 13.1316
    vertex -89.6985 139.713 13.7748
    vertex -91.1609 141.444 15.674
  endloop 
 endfacet 
endsolid 
solid 
 facet normal -4.73294 -0.731603 -3.15967
  outer loop 
    vertex -89.5947 141.819 13.1316
    vertex -88.0264 143.209 10.4605
    vertex -88.1301 141.102 11.1037
  endloop 
 endfacet 
 facet normal -4.73294 -0.731603 -3.15967
  outer loop 
    vertex -89.5947 141.819 13.1316
    vertex -89.491 143.926 12.4884
    vertex -88.0264 143.209 10.4605
  endloop 
 endfacet 
 facet normal -4.73294 -0.731603 -3.15967
  outer loop 
    vertex -88.0264 143.209 10.4605
    vertex -86.5618 142.492 8.43268
    vertex -88.1301 141.102 11.1037
  endloop 
 endfacet 
 facet normal -4.73294 -0.731603 -3.15967
  outer loop 
    vertex -88.1301 141.102 11.1037
    vertex -89.6985 139.713 13.7748
    vertex -89.5947 141.819 13.1316
  endloop 
 endfacet 
 facet normal -6.28563 1.44494 -2.93898
  outer loop 
    vertex -89.6985 139.713 13.7748
    vertex -88.1301 141.102 11.1037
    vertex -88.3992 138.99 10.6406
  endloop 
 endfacet 
 facet normal -6.28563 1.44494 -2.93898
  outer loop 
    vertex -88.1301 141.102 11.1037
    vertex -86.5618 142.492 8.43268
    vertex -88.3992 138.99 10.6406
  endloop 
 endfacet 
 facet normal -6.1965 -1.98744 -3.77272
  outer loop 
    vertex -86.5618 142.492 8.43268
    vertex -88.0264 143.209 10.4605
    vertex -88.5857 146.059 9.87799
  endloop 
 endfacet 
 facet normal -6.1965 -1.98744 -3.77272
  outer loop 
    vertex -88.0264 143.209 10.4605
    vertex -89.491 143.926 12.4884
    vertex -88.5857 146.059 9.87799
  endloop 
 endfacet 
 facet normal -5.11406 -0.743543 -3.26025
  outer loop 
    vertex -89.491 143.926 12.4884
    vertex -89.5947 141.819 13.1316
    vertex -91.1609 141.444 15.674
  endloop 
 endfacet 
 facet normal -5.11406 -0.743543 -3.26025
  outer loop 
    vertex -89.5947 141.819 13.1316
    vertex -89.6985 139.713 13.7748
    vertex -91.1609 141.444 15.674
  endloop 
 endfacet 
endsolid 
solid 
 facet normal -4.73294 -0.731603 -3.15967
  outer loop 
    vertex -89.5947 141.819 13.1316
    vertex -88.0264 143.209 10.4605
    vertex -88.1301 141.102 11.1037
  endloop 
 endfacet 
 facet normal -4.73294 -0.731603 -3.15967
  outer loop 
    vertex -89.5947 141.819 13.1316
    vertex -89.491 143.926 12.4884
    vertex -88.0264 143.209 10.4605
  endloop 
 endfacet 
 facet normal -4.73294 -0.731603 -3.15967
  outer loop 
    vertex -88.0264 143.209 10.4605
    vertex -86.5618 142.492 8.43268
    vertex -88.1301 141.102 11.1037
  endloop 
 endfacet 
 facet normal -4.73294 -0.731603 -3.15967
  outer loop 
    vertex -88.1301 141.102 11.1037
    vertex -89.6985 139.713 13.7748
    vertex -89.5947 141.819 13.1316
  endloop 
 endfacet 
 facet normal -6.28563 1.44494 -2.93898
  outer loop 
    vertex -89.6985 139.713 13.7748
    vertex -88.1301 141.102 11.1037
    vertex -88.3992 138.99 10.6406
  endloop 
 endfacet 
 facet normal -6.28563 1.44494 -2.93898
  outer loop 
    vertex -88.1301 141.102 11.1037
    vertex -86.5618 142.492 8.43268
    vertex -88.3992 138.99 10.6406
  endloop 
 endfacet 
 facet normal -6.1965 -1.98744 -3.77272
  outer loop 
    vertex -86.5618 142.492 8.43268
    vertex -88.0264 143.209 10.4605
    vertex -88.5857 146.059 9.87799
  endloop 
 endfacet 
 facet normal -6.1965 -1.98744 -3.77272
  outer loop 
    vertex -88.0264 143.209 10.4605
    vertex -89.491 143.926 12.4884
    vertex -88.5857 146.059 9.87799
  endloop 
 endfacet 
 facet normal -5.11406 -0.743543 -3.26025
  outer loop 
    vertex -89.491 143.926 12.4884
    vertex -89.5947 141.819 13.1316
    vertex -91.1609 141.444 15.674
  endloop 
 endfacet 
 facet normal -5.11406 -0.743543 -3.26025
  outer loop 
    vertex -89.5947 141.819 13.1316
    vertex -89.6985 139.713 13.7748
    vertex -91.1609 141.444 15.674
  endloop 
 endfacet 
endsolid 
