solid 
 facet normal -18.9318 -2.92641 -12.6387
  outer loop 
    vertex -86.5618 142.492 8.43268
    vertex -89.6985 139.713 13.7748
    vertex -89.491 143.926 12.4884
  endloop 
 endfacet 
 facet normal -22.3694 7.63441 -6.50661
  outer loop 
    vertex -88.3992 138.99 10.6406
    vertex -86.5618 142.492 8.43268
    vertex -86.7947 138.507 4.55756
  endloop 
 endfacet 
 facet normal -13.2396 -2.33693 -12.7729
  outer loop 
    vertex -86.5618 142.492 8.43268
    vertex -88.5857 146.059 9.87799
    vertex -85.6096 147.125 6.59808
  endloop 
 endfacet 
 facet normal -12.5713 2.88988 -5.87796
  outer loop 
    vertex -89.6985 139.713 13.7748
    vertex -86.5618 142.492 8.43268
    vertex -88.3992 138.99 10.6406
  endloop 
 endfacet 
 facet normal -33.3252 3.91463 -18.0594
  outer loop 
    vertex -86.5618 142.492 8.43268
    vertex -83.1594 146.743 3.07574
    vertex -82.7324 141.969 1.25287
  endloop 
 endfacet 
 facet normal -12.393 -3.97488 -7.54545
  outer loop 
    vertex -86.5618 142.492 8.43268
    vertex -89.491 143.926 12.4884
    vertex -88.5857 146.059 9.87799
  endloop 
 endfacet 
 facet normal -17.0202 -1.14133 -11.7157
  outer loop 
    vertex -85.6096 147.125 6.59808
    vertex -83.1594 146.743 3.07574
    vertex -86.5618 142.492 8.43268
  endloop 
 endfacet 
 facet normal -17.2531 12.646 -10.1239
  outer loop 
    vertex -86.5618 142.492 8.43268
    vertex -82.7324 141.969 1.25287
    vertex -85.1487 139.655 2.48083
  endloop 
 endfacet 
 facet normal -12.7253 6.86213 -6.29205
  outer loop 
    vertex -86.7947 138.507 4.55756
    vertex -86.5618 142.492 8.43268
    vertex -85.1487 139.655 2.48083
  endloop 
 endfacet 
endsolid 
